<svg width="204" height="107" viewBox="0 0 204 107" fill="none" xmlns="http://www.w3.org/2000/svg">
<path d="M2.24148 52.5862C1.70765 52.3114 1.28111 51.9602 0.961858 51.5326C0.644336 51.1016 0.465652 50.6402 0.425808 50.1482C0.387691 49.653 0.492191 49.1653 0.739306 48.6852C1.12121 47.9432 1.68652 47.4761 2.43522 47.2839C3.18565 47.0883 3.98726 47.21 4.84004 47.6489L4.90551 47.6826C5.43598 47.9557 5.86003 48.3034 6.17765 48.726C6.49364 49.1434 6.67151 49.6023 6.71126 50.1027C6.75273 50.5997 6.64732 51.0933 6.39502 51.5835C6.01484 52.3221 5.44954 52.7892 4.6991 52.9848C3.9504 53.177 3.15302 53.0553 2.30695 52.6199L2.24148 52.5862ZM2.83441 51.7065C3.43874 52.0175 3.9956 52.1279 4.50499 52.0376C5.01611 51.9439 5.39263 51.6621 5.63456 51.1921C5.87822 50.7187 5.88711 50.2476 5.66123 49.7788C5.43198 49.3084 4.9833 48.9012 4.31517 48.5573C3.71755 48.2497 3.16064 48.1435 2.64444 48.2388C2.12661 48.329 1.74673 48.6091 1.5048 49.0792C1.26805 49.5391 1.26008 50.0043 1.48087 50.4747C1.70167 50.9451 2.15285 51.3557 2.83441 51.7065Z" fill="black"/>
<path d="M8.67154 43.6247C8.42337 43.4883 8.1796 43.4771 7.94025 43.5911C7.6994 43.7 7.4011 43.9604 7.04534 44.3724C6.6914 44.7811 6.36944 45.0846 6.07948 45.2828C5.79134 45.4778 5.51493 45.5887 5.25024 45.6155C4.98738 45.6391 4.72358 45.5781 4.45886 45.4325C4.01877 45.1906 3.74837 44.8007 3.64768 44.2627C3.54881 43.7214 3.65855 43.1612 3.97689 42.5822C4.3116 41.9733 4.73982 41.5667 5.26155 41.3623C5.7851 41.1546 6.29173 41.1853 6.78147 41.4545L6.27394 42.3777C6.02246 42.2395 5.7466 42.2279 5.44636 42.3429C5.14795 42.4546 4.90961 42.6726 4.73134 42.9969C4.54761 43.3311 4.4767 43.6326 4.51861 43.9012C4.56052 44.1699 4.69894 44.3688 4.93388 44.4979C5.15558 44.6198 5.37089 44.624 5.57981 44.5105C5.78872 44.3969 6.06999 44.14 6.4236 43.7398C6.77903 43.3362 7.10611 43.0313 7.40484 42.8249C7.70357 42.6186 7.99115 42.503 8.26758 42.4783C8.54252 42.4485 8.82393 42.5127 9.11181 42.671C9.59162 42.9347 9.87161 43.3386 9.95179 43.8825C10.0287 44.4246 9.89882 45.0017 9.56229 45.6139C9.32581 46.0441 9.04051 46.3828 8.70639 46.63C8.37227 46.8772 8.0177 47.0205 7.64267 47.06C7.26616 47.0943 6.91907 47.0242 6.6014 46.8495L7.1062 45.9313C7.42303 46.0839 7.7352 46.0961 8.04271 45.9678C8.34873 45.8344 8.60543 45.5791 8.81281 45.2019C9.00381 44.8544 9.08712 44.5383 9.06275 44.2534C9.03688 43.9634 8.90648 43.7538 8.67154 43.6247Z" fill="black"/>
<path d="M11.9953 39.6139C12.186 39.2924 12.2553 38.9537 12.203 38.5978C12.1507 38.2418 11.9861 37.9642 11.7092 37.7648L12.2149 36.9123C12.5073 37.1077 12.7331 37.3822 12.8922 37.7356C13.0514 38.089 13.1167 38.4747 13.0884 38.8925C13.062 39.3071 12.9428 39.693 12.7309 40.0503C12.3051 40.768 11.7273 41.198 10.9976 41.3402C10.2665 41.4772 9.48524 41.2992 8.65385 40.806L8.50284 40.7164C7.98972 40.412 7.5893 40.0471 7.30158 39.6218C7.01387 39.1965 6.86362 38.743 6.85085 38.2612C6.84001 37.7762 6.97715 37.2934 7.26228 36.8128C7.61291 36.2217 8.08081 35.8363 8.66599 35.6566C9.25309 35.4736 9.83689 35.5368 10.4174 35.846L9.91166 36.6985C9.55525 36.5222 9.1989 36.4864 8.8426 36.5911C8.48498 36.6907 8.20502 36.911 8.00273 37.252C7.73109 37.7099 7.68576 38.1638 7.86675 38.6136C8.04641 39.0583 8.44801 39.4655 9.07155 39.8354L9.24205 39.9366C9.84935 40.2968 10.3912 40.4492 10.8675 40.3937C11.3439 40.3382 11.7198 40.0783 11.9953 39.6139Z" fill="black"/>
<path d="M16.1888 34.4467C15.737 35.1438 15.1412 35.5631 14.4015 35.7047C13.6586 35.8441 12.9038 35.6654 12.137 35.1684L11.9754 35.0636C11.4652 34.733 11.0731 34.3416 10.7992 33.8895C10.5241 33.4323 10.387 32.9564 10.388 32.4621C10.3878 31.9625 10.5202 31.5083 10.7851 31.0995C11.2184 30.4309 11.7755 30.054 12.4562 29.9687C13.137 29.8835 13.8877 30.1068 14.7084 30.6387L15.0743 30.876L12.8162 34.3599C13.3314 34.6758 13.8373 34.7945 14.3337 34.7158C14.8291 34.6319 15.2185 34.3713 15.5019 33.934C15.7032 33.6235 15.8103 33.3194 15.8232 33.0218C15.8361 32.7241 15.7904 32.4268 15.686 32.1296L16.4524 31.8636C16.8353 32.7238 16.7475 33.5848 16.1888 34.4467ZM11.5076 31.5678C11.2775 31.9227 11.2144 32.3047 11.3181 32.714C11.4187 33.1211 11.6834 33.5042 12.1122 33.8631L13.782 31.287L13.7154 31.2439C13.2522 30.9796 12.8288 30.8762 12.4451 30.9335C12.0583 30.9888 11.7458 31.2002 11.5076 31.5678Z" fill="black"/>
<path d="M14.1906 26.2199L14.8344 26.6442C14.6319 25.9194 14.7522 25.2512 15.1951 24.6395C15.9547 23.5905 16.9297 23.49 18.1199 24.3379L21.4 26.7131L20.7854 27.5618L17.5007 25.1833C17.1407 24.9272 16.8164 24.8182 16.5277 24.8563C16.2413 24.8913 15.9751 25.0785 15.7293 25.418C15.53 25.6933 15.4284 25.988 15.4246 26.3023C15.4208 26.6166 15.4961 26.9182 15.6505 27.2072L19.1875 29.7684L18.573 30.6171L13.6092 27.0227L14.1906 26.2199Z" fill="black"/>
<path d="M21.7665 21.143C21.3163 20.7458 20.9888 20.3008 20.7841 19.8079C20.5819 19.3123 20.5218 18.8211 20.6038 18.3344C20.6882 17.8449 20.9091 17.3977 21.2663 16.9928C21.8184 16.3671 22.481 16.0528 23.254 16.05C24.0295 16.0443 24.7768 16.3588 25.496 16.9933L25.5512 17.0421C25.9985 17.4368 26.3244 17.8779 26.5288 18.3654C26.7328 18.8476 26.7928 19.3361 26.7086 19.8309C26.627 20.3229 26.4038 20.7756 26.0391 21.189C25.4895 21.8119 24.8269 22.1262 24.0514 22.1319C23.2785 22.1347 22.5352 21.8213 21.8217 21.1918L21.7665 21.143ZM22.5569 20.4355C23.0666 20.8852 23.5794 21.1287 24.0954 21.166C24.6139 21.2005 25.048 21.0195 25.3978 20.6231C25.75 20.2239 25.8741 19.7694 25.77 19.2596C25.6631 18.7472 25.3279 18.2425 24.7645 17.7453C24.2605 17.3006 23.7466 17.0612 23.2227 17.0271C22.6986 16.9876 22.2616 17.1661 21.9119 17.5625C21.5696 17.9504 21.4479 18.3994 21.5466 18.9095C21.6454 19.4197 21.9822 19.9284 22.5569 20.4355Z" fill="black"/>
<path d="M30.2385 14.3677C30.0432 14.1626 29.8143 14.0782 29.5516 14.1145C29.2891 14.1455 28.926 14.3036 28.4624 14.5888C28.0014 14.8713 27.6028 15.0632 27.2665 15.1645C26.9329 15.2632 26.6359 15.2854 26.3755 15.2309C26.1178 15.1739 25.8848 15.036 25.6764 14.8173C25.3301 14.4536 25.1902 14.0001 25.2569 13.4569C25.3263 12.9111 25.6003 12.4103 26.0788 11.9546C26.5819 11.4754 27.113 11.2173 27.6721 11.1802C28.234 11.1404 28.7076 11.3229 29.093 11.7276L28.3301 12.4542C28.1322 12.2464 27.8728 12.1519 27.5518 12.1708C27.2336 12.1871 26.9405 12.3228 26.6725 12.578C26.3964 12.841 26.2376 13.1069 26.1964 13.3757C26.1551 13.6444 26.2269 13.8759 26.4118 14.07C26.5863 14.2532 26.7902 14.3223 27.0237 14.2772C27.2572 14.2322 27.6029 14.0723 28.061 13.7977C28.5218 13.5205 28.9258 13.3287 29.2729 13.2223C29.6201 13.116 29.9291 13.0928 30.2001 13.1528C30.4712 13.2075 30.72 13.3538 30.9466 13.5917C31.3242 13.9882 31.469 14.4578 31.3809 15.0005C31.2903 15.5404 30.9921 16.0513 30.4862 16.5331C30.1307 16.8716 29.7564 17.1082 29.3632 17.2429C28.9699 17.3775 28.5886 17.4069 28.2192 17.3311C27.8499 17.25 27.5403 17.0782 27.2903 16.8157L28.0491 16.093C28.305 16.3343 28.5988 16.4403 28.9307 16.411C29.2628 16.3764 29.5846 16.2106 29.8964 15.9138C30.1835 15.6403 30.3585 15.3641 30.4214 15.0852C30.4844 14.801 30.4234 14.5618 30.2385 14.3677Z" fill="black"/>
<path d="M34.4126 12.0414C34.7114 11.8166 34.9043 11.5297 34.9913 11.1807C35.0784 10.8316 35.0319 10.5123 34.8517 10.2225L35.6437 9.6266C35.8398 9.91857 35.9441 10.2583 35.9568 10.6457C35.9695 11.0331 35.8832 11.4146 35.698 11.7902C35.5158 12.1635 35.2588 12.4751 34.9269 12.7248C34.26 13.2265 33.5621 13.4043 32.8331 13.2581C32.1048 13.1067 31.4501 12.6448 30.8689 11.8723L30.7634 11.732C30.4047 11.2553 30.1732 10.7655 30.069 10.2627C29.9648 9.75985 29.9984 9.28326 30.1699 8.8329C30.3444 8.38026 30.655 7.98595 31.1015 7.64995C31.6507 7.23677 32.2301 7.05842 32.8396 7.11489C33.4522 7.16909 33.968 7.44962 34.3872 7.95648L33.5951 8.55241C33.3326 8.25375 33.0167 8.08506 32.6473 8.04635C32.2787 8.00236 31.936 8.09955 31.6192 8.33792C31.1937 8.65802 30.9791 9.06049 30.9753 9.54534C30.9722 10.0249 31.1887 10.5544 31.6245 11.1337L31.7437 11.2921C32.1683 11.8564 32.6113 12.2035 33.073 12.3334C33.5346 12.4634 33.9812 12.366 34.4126 12.0414Z" fill="black"/>
<path d="M39.9606 9.4484C39.2247 9.83387 38.4998 9.90666 37.7859 9.66678C37.0703 9.42356 36.5004 8.89721 36.0764 8.08773L35.9871 7.91714C35.705 7.3786 35.5556 6.84517 35.5389 6.31683C35.5237 5.78339 35.6379 5.30156 35.8815 4.87134C36.1266 4.43602 36.4649 4.10534 36.8964 3.87932C37.6022 3.50963 38.2725 3.45475 38.9074 3.7147C39.5423 3.97465 40.0867 4.5378 40.5405 5.40414L40.7429 5.79048L37.0651 7.71692C37.3588 8.2451 37.7413 8.5968 38.2124 8.77201C38.6852 8.94212 39.1523 8.90628 39.6139 8.66449C39.9418 8.49279 40.1843 8.28046 40.3417 8.02752C40.4991 7.77458 40.6052 7.49305 40.6602 7.18293L41.4584 7.32747C41.3697 8.26485 40.8704 8.97183 39.9606 9.4484ZM37.2959 4.64197C36.9213 4.8382 36.6787 5.14004 36.5681 5.54749C36.4559 5.95159 36.4984 6.41526 36.6957 6.93851L39.4152 5.51404L39.3784 5.4438C39.1046 4.98618 38.7865 4.68816 38.4241 4.54974C38.06 4.40798 37.6839 4.43872 37.2959 4.64197Z" fill="black"/>
<path d="M42.8 1.41201L43.0247 2.14959C43.3315 1.46248 43.8506 1.02489 44.582 0.836809C45.8364 0.514255 46.651 1.05921 47.0259 2.47168L48.0345 6.39388L47.0197 6.65484L46.0097 2.72715C45.896 2.30021 45.7159 2.00927 45.4694 1.85431C45.2266 1.69841 44.9022 1.67266 44.4963 1.77704C44.1672 1.86168 43.9008 2.02374 43.6973 2.26322C43.4937 2.50271 43.3592 2.78294 43.2935 3.10393L44.3811 7.33333L43.3663 7.59429L41.84 1.65887L42.8 1.41201Z" fill="black"/>
<path d="M51.5217 2.87811C51.601 2.28298 51.7884 1.76321 52.0839 1.31881C52.3831 0.874895 52.7576 0.551507 53.2075 0.348641C53.6611 0.146274 54.1556 0.0807729 54.6908 0.152138C55.518 0.262429 56.1479 0.637844 56.5806 1.27838C57.017 1.91942 57.1719 2.71529 57.0451 3.66599L57.0354 3.73898C56.9565 4.33036 56.7715 4.84663 56.4803 5.2878C56.1934 5.72572 55.8209 6.04748 55.3631 6.25309C54.9089 6.4592 54.4086 6.52583 53.8621 6.45297C53.0387 6.34317 52.4088 5.96776 51.9723 5.32672C51.5397 4.68618 51.3862 3.89431 51.512 2.95109L51.5217 2.87811ZM52.5495 3.14086C52.4597 3.81458 52.5429 4.37615 52.7992 4.82555C53.0592 5.27544 53.4512 5.53533 53.9752 5.6052C54.5029 5.67556 54.9496 5.5256 55.3151 5.1553C55.6812 4.78125 55.9139 4.22181 56.0132 3.47697C56.102 2.81073 56.0148 2.25054 55.7516 1.7964C55.4926 1.33902 55.1011 1.07539 54.577 1.00552C54.0643 0.937153 53.6235 1.086 53.2547 1.45205C52.8859 1.81811 52.6508 2.38105 52.5495 3.14086Z" fill="black"/>
<path d="M61.5933 6.80365C61.6963 6.53984 61.6758 6.29669 61.5316 6.07419C61.3923 5.84954 61.0953 5.58763 60.6405 5.28845C60.1893 4.99064 59.8465 4.71088 59.6123 4.44915C59.3815 4.18879 59.2357 3.92914 59.1746 3.6702C59.1171 3.41262 59.1433 3.14314 59.2532 2.86175C59.4358 2.39393 59.7873 2.07514 60.3076 1.90537C60.8314 1.73697 61.4011 1.77294 62.0167 2.0133C62.6639 2.26602 63.1227 2.63774 63.3932 3.12847C63.6673 3.62057 63.7026 4.1269 63.4994 4.64748L62.518 4.26428C62.6224 3.99696 62.598 3.72193 62.4449 3.4392C62.2954 3.15784 62.0482 2.94987 61.7035 2.81527C61.3483 2.67655 61.0402 2.64543 60.7793 2.7219C60.5183 2.79838 60.3391 2.96149 60.2416 3.21123C60.1496 3.44689 60.1734 3.66092 60.3131 3.8533C60.4529 4.04569 60.7441 4.29117 61.187 4.58974C61.6333 4.88969 61.9782 5.17435 62.2216 5.44372C62.4651 5.71308 62.617 5.9832 62.6774 6.25408C62.7428 6.52281 62.7157 6.81018 62.5962 7.11619C62.397 7.62621 62.033 7.95633 61.5041 8.10654C60.9766 8.25323 60.3875 8.19953 59.7368 7.94544C59.2795 7.76689 58.9066 7.52805 58.6181 7.2289C58.3295 6.92975 58.1413 6.59682 58.0534 6.23011C57.9704 5.86125 57.9949 5.50799 58.1267 5.17032L59.1028 5.55145C58.9927 5.88544 59.0212 6.19654 59.1883 6.48477C59.3604 6.77085 59.6469 6.99218 60.0479 7.14875C60.4172 7.29297 60.7415 7.33447 61.0208 7.27327C61.305 7.20992 61.4958 7.05338 61.5933 6.80365Z" fill="black"/>
<path d="M64.9187 9.57447C65.2366 9.77124 65.5739 9.84684 65.9307 9.80128C66.2876 9.75572 66.5683 9.59641 66.7728 9.32335L67.6156 9.84508C67.4147 10.1337 67.1361 10.3543 66.7797 10.5067C66.4233 10.6591 66.0365 10.7172 65.6193 10.681C65.2053 10.6467 64.8217 10.5203 64.4685 10.3017C63.759 9.86244 63.34 9.27665 63.2116 8.54432C63.0883 7.81076 63.2811 7.03302 63.7899 6.2111L63.8824 6.06181C64.1964 5.55453 64.5687 5.16107 64.9994 4.88144C65.4301 4.60181 65.8864 4.46016 66.3683 4.45649C66.8534 4.45481 67.3336 4.60104 67.8087 4.8952C68.3931 5.25693 68.7696 5.73203 68.9382 6.32049C69.11 6.91094 69.0359 7.49344 68.7157 8.068L67.8729 7.54627C68.056 7.19325 68.0985 6.83763 68.0005 6.47942C67.9076 6.11998 67.6927 5.83592 67.3556 5.62722C66.9029 5.34698 66.4499 5.29309 65.9968 5.46555C65.5488 5.63678 65.134 6.03062 64.7524 6.64706L64.6481 6.81562C64.2764 7.41601 64.1138 7.95486 64.1603 8.43217C64.2068 8.90949 64.4596 9.29025 64.9187 9.57447Z" fill="black"/>
<path d="M69.8481 14.1972C69.2144 13.66 68.8746 13.0156 68.8287 12.2639C68.7852 11.5093 69.0589 10.7834 69.6497 10.0863L69.7742 9.93944C70.1673 9.47568 70.6056 9.13679 71.0889 8.92279C71.5776 8.70834 72.067 8.63314 72.5572 8.6972C73.0527 8.76082 73.4863 8.95011 73.8579 9.26507C74.4657 9.78024 74.7684 10.3809 74.766 11.0669C74.7637 11.753 74.4463 12.469 73.8139 13.2151L73.5319 13.5478L70.3648 10.8633C69.9857 11.3339 69.8035 11.8205 69.8181 12.3229C69.8381 12.825 70.0468 13.2444 70.4443 13.5814C70.7266 13.8206 71.0145 13.9657 71.3081 14.0165C71.6016 14.0673 71.9024 14.0599 72.2104 13.9943L72.3764 14.7884C71.4744 15.0584 70.6316 14.8613 69.8481 14.1972ZM73.3012 9.92182C72.9786 9.64837 72.6077 9.53696 72.1886 9.5876C71.7719 9.63537 71.3582 9.84899 70.9474 10.2285L73.2893 12.2135L73.3405 12.153C73.6618 11.7273 73.8184 11.3205 73.8106 10.9327C73.8051 10.542 73.6353 10.205 73.3012 9.92182Z" fill="black"/>
<path d="M77.9409 13.1381L77.4072 13.6946C78.1566 13.6265 78.792 13.8656 79.3134 14.4119C80.2077 15.3488 80.1303 16.3258 79.081 17.3431L76.1516 20.1393L75.4281 19.3814L78.3616 16.5812C78.6786 16.2734 78.8444 15.9741 78.8592 15.6833C78.8766 15.3953 78.7406 15.0997 78.4512 14.7965C78.2165 14.5507 77.945 14.3975 77.6366 14.3369C77.3282 14.2763 77.0179 14.2958 76.7058 14.3954L73.5469 17.4107L72.8234 16.6527L77.2565 12.4211L77.9409 13.1381Z" fill="black"/>
<path d="M81.4916 21.5446C81.9682 21.1794 82.468 20.9438 82.991 20.8379C83.5163 20.735 84.0099 20.7706 84.4716 20.9448C84.9357 21.122 85.332 21.4249 85.6604 21.8535C86.1681 22.5158 86.3488 23.2265 86.2027 23.9855C86.0588 24.7476 85.6063 25.4203 84.845 26.0037L84.7866 26.0485C84.313 26.4115 83.8174 26.6462 83.2996 26.7528C82.7872 26.8601 82.2963 26.8248 81.8269 26.647C81.3599 26.4721 80.9587 26.1659 80.6233 25.7283C80.118 25.069 79.9372 24.3583 80.0811 23.5962C80.2272 22.8372 80.6779 22.1682 81.4332 21.5894L81.4916 21.5446ZM82.0336 22.4566C81.4941 22.87 81.1564 23.3263 81.0204 23.8255C80.8866 24.3276 80.9806 24.7884 81.3021 25.208C81.626 25.6306 82.0481 25.8399 82.5684 25.836C83.0918 25.8298 83.6516 25.5982 84.248 25.1411C84.7815 24.7322 85.1155 24.274 85.2499 23.7666C85.3896 23.2599 85.2987 22.7968 84.9771 22.3772C84.6624 21.9666 84.2453 21.7606 83.7256 21.7592C83.206 21.7578 82.642 21.9903 82.0336 22.4566Z" fill="black"/>
<path d="M86.6369 31.1073C86.8704 30.947 86.9901 30.7344 86.996 30.4693C87.0071 30.2052 86.9087 29.8216 86.7008 29.3185C86.4951 28.8185 86.3689 28.3945 86.3224 28.0463C86.2779 27.7013 86.3032 27.4045 86.3984 27.1561C86.4956 26.9107 86.6688 26.7026 86.9178 26.5317C87.3319 26.2475 87.8018 26.1815 88.3276 26.3336C88.8554 26.4888 89.3063 26.8389 89.6803 27.3837C90.0734 27.9566 90.2439 28.522 90.1917 29.0799C90.1416 29.6409 89.8862 30.0795 89.4254 30.3958L88.8293 29.5271C89.0659 29.3647 89.2004 29.1236 89.2327 28.8037C89.2672 28.4869 89.1798 28.176 88.9704 27.8709C88.7546 27.5564 88.5173 27.3575 88.2585 27.274C87.9998 27.1906 87.7598 27.2247 87.5388 27.3764C87.3302 27.5196 87.2296 27.71 87.237 27.9476C87.2444 28.1853 87.3472 28.552 87.5456 29.0479C87.746 29.5469 87.8712 29.9762 87.9211 30.3359C87.971 30.6955 87.9447 31.0043 87.8424 31.2623C87.7454 31.5212 87.5614 31.7437 87.2905 31.9296C86.8391 32.2394 86.3525 32.3077 85.8306 32.1346C85.3119 31.9593 84.8549 31.5837 84.4596 31.0077C84.1819 30.603 84.0078 30.1958 83.9373 29.7862C83.8669 29.3765 83.8984 28.9954 84.0319 28.6427C84.1707 28.291 84.3895 28.0126 84.6884 27.8075L85.2813 28.6715C85.0024 28.8858 84.8511 29.1591 84.8273 29.4914C84.8087 29.8247 84.9212 30.1688 85.1648 30.5238C85.3892 30.8507 85.634 31.0673 85.8994 31.1737C86.17 31.2811 86.4159 31.259 86.6369 31.1073Z" fill="black"/>
<path d="M88.5168 35.631C88.715 35.948 88.9841 36.1649 89.3244 36.2818C89.6646 36.3987 89.9868 36.3799 90.291 36.2254L90.8163 37.0659C90.5085 37.236 90.1611 37.3107 89.7741 37.2899C89.387 37.2691 89.0144 37.1502 88.6561 36.9332C88.2999 36.7195 88.0117 36.4365 87.7916 36.0843C87.3493 35.3766 87.2324 34.666 87.4409 33.9523C87.6547 33.2398 88.1714 32.6274 88.9911 32.1151L89.14 32.0221C89.646 31.7058 90.1539 31.5175 90.6638 31.4571C91.1738 31.3966 91.6457 31.4713 92.0796 31.681C92.5154 31.894 92.8815 32.2374 93.1777 32.7113C93.5419 33.2941 93.6696 33.8867 93.5607 34.4891C93.4538 35.0946 93.1298 35.5844 92.5887 35.9582L92.0633 35.1177C92.3835 34.8819 92.5789 34.5817 92.6493 34.2171C92.725 33.8536 92.6577 33.5038 92.4476 33.1676C92.1654 32.7161 91.783 32.4675 91.3002 32.4219C90.8227 32.3775 90.2766 32.5474 89.6618 32.9316L89.4937 33.0367C88.8949 33.411 88.5108 33.8224 88.3415 34.2711C88.1722 34.7198 88.2307 35.1731 88.5168 35.631Z" fill="black"/>
<path d="M91.3297 41.9745C90.9163 41.2539 90.8157 40.5324 91.028 39.8098C91.2436 39.0853 91.7477 38.4957 92.5403 38.0409L92.7073 37.9451C93.2346 37.6425 93.7619 37.4728 94.2893 37.4358C94.8217 37.4002 95.3076 37.4958 95.7468 37.7226C96.1912 37.9509 96.5346 38.2763 96.7771 38.6988C97.1736 39.3898 97.2541 40.0576 97.0188 40.702C96.7834 41.3464 96.2415 41.912 95.3933 42.3987L95.015 42.6157L92.9488 39.0146C92.4323 39.3284 92.0955 39.7241 91.9385 40.2016C91.7867 40.6805 91.8404 41.146 92.0997 41.598C92.2839 41.9189 92.5054 42.1532 92.7642 42.3007C93.023 42.4483 93.3084 42.5436 93.6204 42.5866L93.5066 43.3898C92.5665 43.3371 91.8409 42.8653 91.3297 41.9745ZM96.0303 39.1272C95.8198 38.7604 95.5089 38.5296 95.0975 38.4348C94.6894 38.3381 94.2277 38.3984 93.7124 38.6156L95.2402 41.2784L95.309 41.2389C95.7558 40.9478 96.0414 40.6185 96.1658 40.2511C96.2935 39.8818 96.2483 39.5071 96.0303 39.1272Z" fill="black"/>
<path d="M99.3663 43.5452L98.7025 43.9375C99.4426 44.0736 99.9902 44.4749 100.345 45.1414C100.955 46.2843 100.617 47.2045 99.3328 47.9018L95.759 49.8067L95.2661 48.882L98.845 46.9745C99.2331 46.7633 99.4734 46.5197 99.5658 46.2436C99.6601 45.9709 99.6086 45.6496 99.4115 45.2797C99.2516 44.9798 99.0314 44.7592 98.7506 44.6178C98.4699 44.4765 98.1658 44.4118 97.8384 44.4237L93.9847 46.4777L93.4918 45.553L98.9001 42.6704L99.3663 43.5452Z" fill="black"/>
<path d="M100.886 53.0505C101.42 52.7746 101.953 52.6305 102.486 52.6181C103.022 52.6091 103.501 52.7309 103.925 52.9835C104.351 53.2394 104.688 53.6072 104.936 54.0868C105.319 54.828 105.372 55.5594 105.095 56.281C104.82 57.0059 104.256 57.5887 103.404 58.0293L103.339 58.0632C102.809 58.3373 102.28 58.4813 101.751 58.4953C101.228 58.5109 100.751 58.3899 100.32 58.1324C99.891 57.8782 99.5498 57.5062 99.2965 57.0166C98.9148 56.2787 98.8618 55.5473 99.1372 54.8224C99.4145 54.1008 99.9757 53.5215 100.821 53.0843L100.886 53.0505ZM101.26 54.0435C100.656 54.3557 100.243 54.7456 100.022 55.2131C99.8018 55.6839 99.8133 56.1541 100.056 56.6236C100.301 57.0965 100.68 57.3768 101.192 57.4643C101.709 57.5501 102.301 57.4204 102.968 57.0752C103.565 56.7664 103.974 56.374 104.196 55.8981C104.422 55.4238 104.414 54.9519 104.171 54.4824C103.934 54.0229 103.559 53.7468 103.048 53.6542C102.537 53.5615 101.94 53.6913 101.26 54.0435Z" fill="black"/>
<path d="M104.719 63.4517C104.967 63.3147 105.107 63.1146 105.138 62.8513C105.175 62.5895 105.114 62.1983 104.955 61.6775C104.799 61.16 104.714 60.7257 104.701 60.3747C104.69 60.027 104.744 59.7341 104.863 59.4959C104.983 59.2611 105.176 59.0706 105.44 58.9245C105.88 58.6816 106.354 58.6612 106.862 58.8633C107.373 59.0688 107.788 59.4607 108.107 60.039C108.443 60.6471 108.559 61.2263 108.453 61.7766C108.349 62.3302 108.052 62.7421 107.563 63.0124L107.054 62.0904C107.305 61.9516 107.462 61.7245 107.525 61.4092C107.59 61.0973 107.533 60.7793 107.354 60.4555C107.169 60.1217 106.952 59.9007 106.703 59.7927C106.453 59.6847 106.211 59.6955 105.977 59.8252C105.755 59.9476 105.637 60.1274 105.621 60.3647C105.606 60.6019 105.673 60.9769 105.822 61.4896C105.974 62.0056 106.057 62.445 106.072 62.8078C106.087 63.1705 106.031 63.4754 105.904 63.7223C105.783 63.9707 105.578 64.1743 105.29 64.3332C104.811 64.598 104.32 64.6191 103.818 64.3965C103.318 64.172 102.9 63.7541 102.562 63.1426C102.324 62.713 102.19 62.2909 102.16 61.8764C102.129 61.4619 102.197 61.0856 102.364 60.7474C102.536 60.4108 102.781 60.1547 103.098 59.9794L103.605 60.8965C103.307 61.0829 103.13 61.3404 103.074 61.6688C103.023 61.9988 103.102 62.3522 103.31 62.729C103.502 63.076 103.725 63.3152 103.979 63.4467C104.238 63.5797 104.484 63.5814 104.719 63.4517Z" fill="black"/>
<path d="M106.588 68.4574C106.779 68.7784 107.044 69.0009 107.382 69.1248C107.719 69.2487 108.042 69.2366 108.349 69.0884L108.857 69.9396C108.546 70.1033 108.197 70.1708 107.81 70.1419C107.424 70.1131 107.054 69.9866 106.7 69.7623C106.348 69.5412 106.066 69.2523 105.853 68.8956C105.426 68.1789 105.324 67.466 105.547 66.7568C105.775 66.0489 106.304 65.4474 107.135 64.9521L107.285 64.8621C107.798 64.5565 108.31 64.3787 108.821 64.3288C109.332 64.2789 109.802 64.3633 110.231 64.582C110.663 64.8039 111.022 65.1548 111.308 65.6348C111.66 66.225 111.775 66.8201 111.654 67.4201C111.535 68.0233 111.201 68.5062 110.652 68.8688L110.144 68.0176C110.469 67.7885 110.671 67.4924 110.749 67.1293C110.832 66.7675 110.772 66.4164 110.569 66.0759C110.296 65.6186 109.919 65.3622 109.437 65.3066C108.96 65.2523 108.411 65.4109 107.788 65.7823L107.618 65.8839C107.012 66.2457 106.619 66.6491 106.441 67.0942C106.262 67.5393 106.311 67.9937 106.588 68.4574Z" fill="black"/>
<path d="M109.843 75.2996C109.387 74.6051 109.244 73.8908 109.413 73.1568C109.584 72.4208 110.052 71.802 110.816 71.3007L110.977 71.195C111.486 70.8615 112.002 70.6605 112.526 70.592C113.055 70.5246 113.546 70.591 113.998 70.7912C114.455 70.9924 114.818 71.2967 115.085 71.7039C115.522 72.3701 115.642 73.0318 115.446 73.6891C115.249 74.3464 114.742 74.9434 113.925 75.48L113.56 75.7193L111.282 72.2482C110.785 72.5923 110.473 73.0074 110.345 73.4935C110.222 73.9806 110.303 74.442 110.589 74.8777C110.792 75.1871 111.027 75.4077 111.295 75.5395C111.562 75.6713 111.852 75.7493 112.166 75.7736L112.101 76.5822C111.159 76.5858 110.407 76.1583 109.843 75.2996ZM114.365 72.1763C114.133 71.8227 113.809 71.6109 113.392 71.5409C112.979 71.4687 112.522 71.5565 112.021 71.8043L113.705 74.3709L113.771 74.3274C114.2 74.01 114.465 73.6642 114.567 73.29C114.673 72.9137 114.605 72.5425 114.365 72.1763Z" fill="black"/>
<path d="M117.787 75.9129L117.185 76.3942C117.936 76.4255 118.535 76.7462 118.98 77.3565C119.743 78.403 119.537 79.3613 118.363 80.2314L115.091 82.6175L114.474 81.7708L117.75 79.3814C118.105 79.1181 118.309 78.8433 118.362 78.557C118.417 78.2737 118.321 77.9628 118.074 77.6241C117.874 77.3495 117.625 77.1619 117.327 77.0612C117.03 76.9605 116.719 76.9389 116.397 76.9965L112.868 79.5694L112.251 78.7228L117.203 75.112L117.787 75.9129Z" fill="black"/>
<path d="M120.945 85.0315C121.392 84.6305 121.872 84.3569 122.385 84.2109C122.901 84.0676 123.396 84.065 123.869 84.2029C124.346 84.3436 124.764 84.6149 125.125 85.0168C125.682 85.6379 125.918 86.3324 125.831 87.1005C125.746 87.8714 125.347 88.5771 124.633 89.2177L124.578 89.2669C124.134 89.6654 123.658 89.9378 123.15 90.0842C122.648 90.2308 122.156 90.2336 121.674 90.0926C121.195 89.9544 120.771 89.6801 120.403 89.2698C119.848 88.6516 119.613 87.957 119.697 87.1861C119.784 86.418 120.182 85.7162 120.89 85.0807L120.945 85.0315ZM121.556 85.8988C121.05 86.3528 120.748 86.8338 120.651 87.342C120.557 87.8529 120.686 88.3051 121.039 88.6986C121.395 89.0948 121.832 89.2709 122.35 89.2267C122.872 89.18 123.412 88.9057 123.971 88.4038C124.471 87.9549 124.769 87.4723 124.864 86.956C124.964 86.44 124.837 85.9853 124.484 85.5918C124.139 85.2068 123.707 85.0337 123.189 85.0726C122.671 85.1114 122.126 85.3868 121.556 85.8988Z" fill="black"/>
<path d="M127.475 93.95C127.668 93.7429 127.739 93.5094 127.687 93.2493C127.641 92.9891 127.462 92.636 127.15 92.1899C126.841 91.7463 126.625 91.3597 126.505 91.0299C126.386 90.7027 126.347 90.4075 126.386 90.1443C126.428 89.8837 126.552 89.643 126.758 89.4222C127.1 89.055 127.545 88.8888 128.091 88.9234C128.64 88.9605 129.156 89.2046 129.639 89.6554C130.147 90.1295 130.436 90.6445 130.506 91.2005C130.579 91.759 130.424 92.2426 130.043 92.6511L129.273 91.9323C129.469 91.7225 129.548 91.458 129.51 91.1387C129.475 90.8219 129.322 90.5373 129.052 90.2848C128.773 90.0246 128.498 89.8818 128.227 89.8564C127.957 89.831 127.73 89.9163 127.547 90.1123C127.374 90.2973 127.317 90.5049 127.376 90.7354C127.435 90.9658 127.615 91.3015 127.916 91.7427C128.22 92.1864 128.435 92.5784 128.561 92.9186C128.688 93.2589 128.729 93.5661 128.685 93.8401C128.647 94.1139 128.515 94.3709 128.291 94.6111C127.918 95.0114 127.457 95.1835 126.91 95.1276C126.366 95.0689 125.838 94.8012 125.328 94.3246C124.969 93.9896 124.711 93.6298 124.553 93.2452C124.396 92.8606 124.344 92.4816 124.398 92.1084C124.457 91.735 124.61 91.4158 124.858 91.1508L125.624 91.8658C125.398 92.1354 125.309 92.435 125.358 92.7646C125.412 93.094 125.597 93.4056 125.911 93.6993C126.201 93.9698 126.487 94.1283 126.769 94.1747C127.057 94.2209 127.292 94.1459 127.475 93.95Z" fill="black"/>
<path d="M130.973 97.9394C131.274 98.1605 131.605 98.2623 131.964 98.2448C132.323 98.2274 132.616 98.0905 132.841 97.8344L133.64 98.4205C133.417 98.6925 133.122 98.8906 132.755 99.0146C132.388 99.1386 131.998 99.1663 131.584 99.0974C131.174 99.0309 130.802 98.8747 130.467 98.6291C129.794 98.1356 129.422 97.5188 129.352 96.7787C129.286 96.0377 129.539 95.2775 130.111 94.4979L130.215 94.3563C130.568 93.8752 130.97 93.5122 131.421 93.2671C131.872 93.0221 132.338 92.9167 132.819 92.9508C133.303 92.9871 133.77 93.1705 134.221 93.501C134.775 93.9074 135.113 94.4105 135.235 95.0104C135.36 95.6125 135.24 96.1874 134.876 96.7351L134.077 96.1489C134.287 95.8113 134.357 95.4602 134.288 95.0954C134.223 94.7298 134.031 94.4297 133.711 94.1953C133.282 93.8804 132.835 93.7912 132.369 93.9276C131.909 94.0632 131.465 94.4233 131.036 95.008L130.919 95.1678C130.502 95.7373 130.297 96.2617 130.306 96.7412C130.315 97.2207 130.537 97.6201 130.973 97.9394Z" fill="black"/>
<path d="M137.067 102.731C136.323 102.363 135.838 101.819 135.612 101.1C135.388 100.379 135.479 99.6081 135.885 98.7892L135.97 98.6167C136.24 98.0719 136.583 97.6374 137.001 97.3133C137.424 96.9874 137.881 96.7965 138.372 96.7406C138.868 96.683 139.334 96.7623 139.771 96.9785C140.485 97.332 140.923 97.8421 141.086 98.5085C141.249 99.1749 141.114 99.9463 140.68 100.823L140.486 101.214L136.766 99.371C136.511 99.9191 136.451 100.435 136.587 100.919C136.727 101.402 137.031 101.759 137.498 101.99C137.829 102.154 138.144 102.226 138.441 102.204C138.738 102.183 139.028 102.103 139.311 101.965L139.664 102.696C138.853 103.175 137.988 103.187 137.067 102.731ZM139.389 97.75C139.01 97.5623 138.623 97.5435 138.229 97.6936C137.836 97.8403 137.486 98.1473 137.178 98.6146L139.929 99.977L139.965 99.9059C140.174 99.4154 140.228 98.9829 140.127 98.6084C140.027 98.2305 139.781 97.9444 139.389 97.75Z" fill="black"/>
<path d="M144.152 98.9869L144.007 99.7441C144.599 99.2795 145.262 99.1347 145.997 99.3096C147.257 99.6096 147.723 100.472 147.396 101.896L146.458 105.836L145.438 105.593L146.378 101.648C146.476 101.217 146.453 100.876 146.307 100.624C146.165 100.372 145.89 100.198 145.482 100.101C145.152 100.022 144.841 100.042 144.549 100.158C144.257 100.275 144.007 100.46 143.8 100.714L142.788 104.962L141.769 104.719L143.188 98.7573L144.152 98.9869Z" fill="black"/>
<path d="M152.589 103.245C152.493 102.652 152.522 102.1 152.677 101.59C152.835 101.078 153.1 100.66 153.472 100.336C153.848 100.011 154.303 99.8058 154.836 99.7195C155.659 99.5862 156.371 99.7636 156.97 100.252C157.573 100.739 157.951 101.457 158.105 102.403L158.116 102.476C158.212 103.065 158.184 103.613 158.032 104.119C157.884 104.621 157.621 105.037 157.242 105.366C156.866 105.695 156.407 105.903 155.863 105.991C155.042 106.124 154.331 105.946 153.728 105.459C153.129 104.971 152.753 104.257 152.601 103.317L152.589 103.245ZM153.649 103.199C153.758 103.87 154 104.384 154.375 104.74C154.754 105.096 155.204 105.231 155.726 105.147C156.251 105.062 156.636 104.789 156.879 104.329C157.121 103.865 157.182 103.262 157.062 102.521C156.955 101.857 156.709 101.346 156.326 100.987C155.946 100.624 155.495 100.485 154.973 100.569C154.463 100.652 154.084 100.922 153.836 101.379C153.589 101.836 153.526 102.443 153.649 103.199Z" fill="black"/>
<path d="M163.719 101.854C163.612 101.592 163.429 101.43 163.171 101.368C162.915 101.301 162.52 101.316 161.984 101.413C161.452 101.509 161.011 101.543 160.661 101.515C160.314 101.485 160.029 101.398 159.806 101.252C159.587 101.106 159.42 100.892 159.306 100.613C159.115 100.148 159.15 99.6748 159.41 99.193C159.673 98.7098 160.11 98.343 160.722 98.0926C161.365 97.8293 161.954 97.7821 162.488 97.9509C163.026 98.1183 163.4 98.4606 163.612 98.9777L162.637 99.377C162.529 99.1114 162.321 98.929 162.015 98.8299C161.713 98.7293 161.391 98.7491 161.048 98.8893C160.695 99.0339 160.451 99.2238 160.315 99.4591C160.178 99.6944 160.161 99.9361 160.263 100.184C160.359 100.418 160.523 100.557 160.757 100.6C160.991 100.643 161.371 100.62 161.898 100.531C162.428 100.44 162.874 100.408 163.236 100.435C163.598 100.463 163.894 100.554 164.125 100.708C164.358 100.858 164.536 101.084 164.661 101.388C164.868 101.895 164.832 102.385 164.553 102.859C164.272 103.329 163.808 103.696 163.162 103.961C162.708 104.147 162.273 104.231 161.858 104.213C161.442 104.196 161.076 104.084 160.76 103.879C160.445 103.67 160.22 103.397 160.082 103.061L161.052 102.664C161.202 102.982 161.438 103.188 161.757 103.281C162.079 103.37 162.439 103.332 162.838 103.169C163.205 103.019 163.468 102.825 163.628 102.589C163.79 102.347 163.821 102.102 163.719 101.854Z" fill="black"/>
<path d="M168.813 100.095C169.128 99.8943 169.342 99.6232 169.456 99.2819C169.57 98.9406 169.548 98.6185 169.39 98.3158L170.226 97.7826C170.399 98.0888 170.477 98.4355 170.46 98.8227C170.443 99.21 170.327 99.5837 170.114 99.944C169.903 100.302 169.623 100.593 169.273 100.816C168.569 101.265 167.86 101.389 167.144 101.187C166.43 100.98 165.813 100.469 165.293 99.6541L165.198 99.506C164.877 99.0031 164.684 98.497 164.619 97.9876C164.554 97.4783 164.624 97.0057 164.83 96.5699C165.038 96.132 165.378 95.7628 165.85 95.4622C166.429 95.0925 167.02 94.9593 167.624 95.0625C168.23 95.1637 168.723 95.4831 169.102 96.0207L168.266 96.5539C168.027 96.2359 167.725 96.0434 167.36 95.9764C166.996 95.9041 166.647 95.9746 166.313 96.1879C165.864 96.4743 165.619 96.8591 165.578 97.3422C165.538 97.8201 165.713 98.3646 166.103 98.9758L166.209 99.1429C166.589 99.7382 167.004 100.118 167.455 100.283C167.905 100.449 168.358 100.386 168.813 100.095Z" fill="black"/>
<path d="M175.674 96.062C175.046 96.6061 174.357 96.8433 173.607 96.7737C172.855 96.7012 172.179 96.3197 171.581 95.6291L171.455 95.4836C171.057 95.0242 170.789 94.5393 170.651 94.0289C170.514 93.5131 170.515 93.018 170.653 92.5433C170.792 92.0634 171.045 91.6639 171.413 91.3448C172.015 90.823 172.655 90.6158 173.333 90.7231C174.01 90.8304 174.669 91.2535 175.31 91.9926L175.596 92.3222L172.458 95.0413C172.865 95.488 173.318 95.7425 173.817 95.8049C174.316 95.862 174.763 95.7199 175.156 95.3786C175.436 95.1362 175.623 94.8739 175.719 94.5916C175.814 94.3093 175.852 94.0109 175.835 93.6964L176.645 93.6539C176.774 94.5866 176.45 95.3893 175.674 96.062ZM171.977 91.9954C171.657 92.2724 171.491 92.6219 171.477 93.0438C171.46 93.4629 171.608 93.9044 171.92 94.3684L174.24 92.3578L174.188 92.2979C173.816 91.9154 173.438 91.6983 173.054 91.6467C172.667 91.5923 172.308 91.7086 171.977 91.9954Z" fill="black"/>
<path d="M175.363 87.8305L175.948 88.3325C175.839 87.5881 176.042 86.9404 176.559 86.3894C177.445 85.4445 178.425 85.4677 179.498 86.4589L182.453 89.2287L181.736 89.9931L178.778 87.2195C178.453 86.92 178.145 86.771 177.854 86.7724C177.565 86.771 177.277 86.9232 176.991 87.229C176.758 87.4769 176.62 87.7565 176.577 88.0678C176.534 88.3791 176.57 88.6878 176.687 88.9939L179.873 91.9807L179.156 92.7452L174.685 88.5536L175.363 87.8305Z" fill="black"/>
<path d="M183.439 83.2493C182.96 82.8874 182.6 82.4686 182.358 81.9927C182.119 81.5138 182.022 81.0287 182.066 80.5372C182.114 80.0427 182.3 79.58 182.625 79.1491C183.128 78.4832 183.765 78.1195 184.536 78.058C185.308 77.9934 186.077 78.2502 186.843 78.8283L186.901 78.8727C187.377 79.2323 187.736 79.6474 187.977 80.118C188.217 80.5833 188.314 81.0658 188.267 81.5656C188.223 82.0624 188.035 82.5307 187.703 82.9706C187.202 83.6335 186.565 83.9972 185.793 84.0617C185.022 84.1233 184.257 83.8673 183.498 83.2937L183.439 83.2493ZM184.174 82.4838C184.716 82.8935 185.246 83.0973 185.763 83.0953C186.283 83.0903 186.702 82.8769 187.021 82.4551C187.341 82.0303 187.431 81.5676 187.288 81.0672C187.143 80.5645 186.77 80.0866 186.17 79.6337C185.634 79.2286 185.103 79.0289 184.579 79.0346C184.053 79.0351 183.631 79.2462 183.312 79.6681C183 80.0808 182.913 80.5378 183.05 81.039C183.188 81.5402 183.562 82.0218 184.174 82.4838Z" fill="black"/>
<path d="M191.096 75.1825C190.862 75.0237 190.62 74.9899 190.371 75.0813C190.121 75.1674 189.8 75.3991 189.408 75.7764C189.018 76.1505 188.669 76.4229 188.362 76.5934C188.057 76.7608 187.771 76.8456 187.505 76.8478C187.242 76.8469 186.984 76.7617 186.734 76.5923C186.319 76.3107 186.085 75.8973 186.035 75.3524C185.987 74.8043 186.148 74.2567 186.519 73.7096C186.908 73.1343 187.372 72.7691 187.911 72.6139C188.451 72.4556 188.953 72.5331 189.416 72.8466L188.825 73.7188C188.587 73.5578 188.313 73.5207 188.004 73.6075C187.696 73.6911 187.439 73.886 187.231 74.1924C187.017 74.5082 186.919 74.8017 186.936 75.0731C186.953 75.3445 187.072 75.5554 187.294 75.7057C187.503 75.8476 187.717 75.8717 187.936 75.778C188.154 75.6844 188.458 75.4546 188.847 75.0889C189.239 74.72 189.593 74.4466 189.909 74.2688C190.226 74.091 190.523 74.0026 190.8 74.0036C191.077 73.9994 191.351 74.0894 191.623 74.2737C192.076 74.5807 192.318 75.0088 192.347 75.5578C192.374 76.1047 192.191 76.6673 191.799 77.2457C191.524 77.6521 191.208 77.9629 190.853 78.1781C190.497 78.3933 190.131 78.5032 189.754 78.5077C189.376 78.507 189.037 78.405 188.736 78.2017L189.324 77.3342C189.625 77.5155 189.935 77.5565 190.253 77.4573C190.57 77.3528 190.85 77.1224 191.091 76.766C191.313 76.4377 191.426 76.1307 191.428 75.8447C191.429 75.5536 191.318 75.3329 191.096 75.1825Z" fill="black"/>
<path d="M194.234 71.9318C194.431 71.6143 194.508 71.2771 194.463 70.9202C194.418 70.5633 194.259 70.2823 193.986 70.0773L194.509 69.2353C194.797 69.4367 195.018 69.7157 195.169 70.0723C195.321 70.429 195.379 70.8159 195.342 71.233C195.307 71.647 195.18 72.0304 194.961 72.3832C194.52 73.092 193.934 73.5101 193.201 73.6373C192.467 73.7593 191.69 73.5653 190.869 73.0551L190.72 72.9625C190.213 72.6476 189.82 72.2746 189.541 71.8435C189.262 71.4123 189.121 70.9558 189.119 70.4739C189.118 69.9888 189.265 69.5089 189.56 69.0342C189.922 68.4504 190.398 68.0747 190.987 67.9071C191.577 67.7362 192.16 67.8113 192.734 68.1323L192.211 68.9743C191.858 68.7907 191.502 68.7476 191.144 68.845C190.785 68.9373 190.5 69.1518 190.291 69.4885C190.01 69.9408 189.955 70.3936 190.127 70.8471C190.297 71.2953 190.691 71.7107 191.306 72.0933L191.475 72.198C192.075 72.5706 192.613 72.7341 193.091 72.6884C193.568 72.6427 193.949 72.3905 194.234 71.9318Z" fill="black"/>
<path d="M198.67 66.1778C198.258 66.8993 197.687 67.3516 196.957 67.5347C196.223 67.7159 195.459 67.5801 194.666 67.1272L194.498 67.0317C193.97 66.7304 193.557 66.3618 193.258 65.9259C192.957 65.4849 192.793 65.0176 192.766 64.524C192.738 64.0252 192.845 63.5643 193.086 63.1412C193.481 62.4492 194.016 62.0414 194.691 61.9178C195.365 61.7942 196.128 61.9748 196.977 62.4595L197.356 62.6757L195.298 66.2816C195.83 66.568 196.342 66.6578 196.833 66.5512C197.323 66.4395 197.697 66.1573 197.955 65.7047C198.139 65.3833 198.229 65.0737 198.225 64.7758C198.221 64.4779 198.158 64.1836 198.037 63.8928L198.787 63.584C199.218 64.4211 199.179 65.2857 198.67 66.1778ZM193.834 63.5679C193.624 63.9352 193.583 64.3202 193.709 64.7229C193.833 65.1238 194.119 65.4913 194.567 65.8254L196.089 63.1591L196.02 63.1198C195.542 62.8821 195.114 62.8028 194.734 62.8817C194.351 62.9587 194.051 63.1875 193.834 63.5679Z" fill="black"/>
<path d="M195.821 58.4785L196.517 58.8094C196.216 58.1197 196.243 57.4413 196.596 56.7741C197.203 55.6299 198.155 55.3951 199.451 56.0697L203.029 57.967L202.538 58.8928L198.955 56.9928C198.563 56.7891 198.227 56.7262 197.946 56.8039C197.667 56.8783 197.43 57.1007 197.234 57.471C197.074 57.7712 197.015 58.0772 197.054 58.389C197.094 58.7007 197.211 58.989 197.404 59.2538L201.262 61.2997L200.771 62.2254L195.356 59.3542L195.821 58.4785Z" fill="black"/>
</svg>
